<svg id="_x31__x2C_5" enable-background="new 0 0 24 24" height="512" viewBox="0 0 24 24" width="512" xmlns="http://www.w3.org/2000/svg"><path d="m8 24c-3.438 0-5.335-2.447-6.737-4.841-.013-.023-.392-.729-.549-1.087-.477-1.173-.714-2.378-.714-3.602v-3.69c0-3.255 2.103-4.45 3.59-4.712.33-.792 1.333-1.987 4.39-2.068.511-.013 1.03.022 1.548.098.409.06.693.44.634.85-.061.411-.438.694-.851.634-.436-.064-.871-.094-1.295-.082-2.354.062-3.049.871-3.087 1.29-.034.38-.352.712-.734.72-.271.009-2.695.18-2.695 3.27v3.69c0 1.029.2 2.045.596 3.018.133.302.475.937.475.937 1.428 2.436 2.905 4.075 5.429 4.075 2.462 0 3.888-1.541 5.388-4.027s.369-.665.527-1.019c.385-.949.585-1.964.585-2.994 0-.414.336-.76.75-.76s.75.326.75.74c0 1.244-.237 2.45-.705 3.602-.189.424-.608 1.182-.608 1.182-1.504 2.492-3.344 4.776-6.687 4.776z"/><path d="m1.055 14.166-.375-.656-.293-.69 1.589-.705c.019-.008 2.215-1.03 2.215-2.924 0-.361.258-.67.612-.736.358-.066.708.131.838.467.056.144 1.404 3.529 4.64 3.529.414 0 .75.336.75.75s-.336.75-.75.75c-2.551 0-4.183-1.532-5.099-2.808-.856 1.546-2.502 2.3-2.595 2.342z"/><path d="m8.001 20.5c-1.003 0-1.943-.402-2.65-1.131-.288-.298-.28-.772.018-1.061s.772-.279 1.061.017c.841.87 2.301.871 3.144 0 .289-.297.764-.305 1.061-.017.298.288.306.763.018 1.061-.71.729-1.65 1.131-2.652 1.131z"/><path d="m17.5 13c-3.584 0-6.5-2.916-6.5-6.5s2.916-6.5 6.5-6.5 6.5 2.916 6.5 6.5-2.916 6.5-6.5 6.5zm0-11.5c-2.757 0-5 2.243-5 5s2.243 5 5 5 5-2.243 5-5-2.243-5-5-5z"/><path d="m15.629 9.121c-.192 0-.384-.073-.53-.22-.293-.293-.293-.768 0-1.061l3.742-3.742c.293-.293.768-.293 1.061 0s.293.768 0 1.061l-3.742 3.742c-.147.147-.339.22-.531.22z"/><path d="m19.371 9.121c-.192 0-.384-.073-.53-.22l-3.742-3.742c-.293-.293-.293-.768 0-1.061s.768-.293 1.061 0l3.742 3.742c.293.293.293.768 0 1.061-.147.147-.339.22-.531.22z"/></svg>